<?xml version="1.0" encoding="UTF-8"?>
<svg width="50px" height="50px" viewBox="0 0 50 50" version="1.1" xmlns="http://www.w3.org/2000/svg" xmlns:xlink="http://www.w3.org/1999/xlink">
    <title>3A00A42B-92A7-4DA7-BEE9-1B29B50636EC@2x</title>
    <defs>
        <polygon id="path-1" points="0.000125 0.0001875 50 0.0001875 50 50 0.000125 50"></polygon>
        <linearGradient x1="0%" y1="0%" x2="50%" y2="100%" id="linearGradient-3">
            <stop stop-color="#F48FA6" offset="0%"></stop>
            <stop stop-color="#7566AD" offset="100%"></stop>
        </linearGradient>
        <linearGradient x1="0%" y1="4.35297659%" x2="50%" y2="95.6470234%" id="linearGradient-4">
            <stop stop-color="#F48FA6" offset="0%"></stop>
            <stop stop-color="#7566AD" offset="100%"></stop>
        </linearGradient>
        <linearGradient x1="0%" y1="41.2162352%" x2="50%" y2="58.7837648%" id="linearGradient-5">
            <stop stop-color="#F48FA6" offset="0%"></stop>
            <stop stop-color="#7566AD" offset="100%"></stop>
        </linearGradient>
    </defs>
    <g id="Desktop" stroke="none" stroke-width="1" fill="none" fill-rule="evenodd">
        <g id="Rewards---Log-in/Sign-Up" transform="translate(-1171.000000, -556.000000)">
            <g id="Rewards" transform="translate(0.000000, 409.000000)">
                <g id="Levels" transform="translate(720.000000, 0.000000)">
                    <g id="VIP" transform="translate(370.000000, 112.000000)">
                        <g id="Icon" transform="translate(81.000000, 35.000000)">
                            <g id="Group-3">
                                <mask id="mask-2" fill="white">
                                    <use xlink:href="#path-1"></use>
                                </mask>
                                <g id="Clip-2"></g>
                                <path d="M25.000125,48.7501875 C11.9045,48.7501875 1.250125,38.0958125 1.250125,25.0001875 C1.250125,11.9045625 11.9045,1.2501875 25.000125,1.2501875 C38.09575,1.2501875 48.750125,11.9045625 48.750125,25.0001875 C48.750125,38.0958125 38.09575,48.7501875 25.000125,48.7501875 M25.000125,0.0001875 C11.2145,0.0001875 0.000125,11.2145625 0.000125,25.0001875 C0.000125,38.7851875 11.2145,50.0001875 25.000125,50.0001875 C38.785125,50.0001875 50.000125,38.7851875 50.000125,25.0001875 C50.000125,11.2145625 38.785125,0.0001875 25.000125,0.0001875" id="Fill-1" fill="url(#linearGradient-3)" mask="url(#mask-2)"></path>
                            </g>
                            <path d="M12.9371875,16.8215 C13.0846875,16.67775 13.1521875,16.47025 13.1171875,16.26775 L12.5934375,13.214625 L15.3353125,14.6565 C15.5171875,14.752125 15.7353125,14.752125 15.9171875,14.6565 L18.6584375,13.214625 L18.1346875,16.26775 C18.1009375,16.47025 18.1678125,16.67775 18.3146875,16.8215 L20.5328125,18.983375 L17.4678125,19.428375 C17.2640625,19.458375 17.0884375,19.585875 16.9965625,19.770875 L15.6265625,22.548375 L14.2553125,19.770875 C14.1640625,19.585875 13.9884375,19.458375 13.7840625,19.428375 L10.7190625,18.983375 L12.9371875,16.8215 Z M15.0653125,24.237125 C15.1709375,24.45025 15.3884375,24.585875 15.6265625,24.585875 C15.8646875,24.585875 16.0815625,24.45025 16.1865625,24.237125 L17.9728125,20.618375 L21.9659375,20.03775 C22.2015625,20.004 22.3971875,19.839 22.4709375,19.61275 C22.5440625,19.3865 22.4828125,19.138375 22.3121875,18.9715 L19.4228125,16.155875 L20.1053125,12.17775 C20.1446875,11.943375 20.0484375,11.705875 19.8559375,11.5665 C19.6640625,11.427125 19.4090625,11.409625 19.1984375,11.519 L15.6265625,13.397125 L12.0540625,11.519 C11.8440625,11.409625 11.5890625,11.427125 11.3959375,11.5665 C11.2040625,11.705875 11.1071875,11.943375 11.1471875,12.17775 L11.8296875,16.155875 L8.9396875,18.9715 C8.7696875,19.138375 8.7078125,19.3865 8.7821875,19.61275 C8.8553125,19.839 9.0509375,20.004 9.2865625,20.03775 L13.2796875,20.618375 L15.0653125,24.237125 Z" id="Fill-4" fill="url(#linearGradient-4)"></path>
                            <path d="M36.215375,19.4283125 C36.011625,19.4583125 35.836,19.5858125 35.74475,19.7708125 L34.374125,22.5483125 L33.002875,19.7708125 C32.91225,19.5858125 32.736625,19.4583125 32.53225,19.4283125 L29.466625,18.9833125 L31.68475,16.8214375 C31.83225,16.6776875 31.89975,16.4708125 31.86475,16.2676875 L31.341,13.2151875 L34.082875,14.6564375 C34.26475,14.7526875 34.482875,14.7526875 34.66475,14.6564375 L37.406625,13.2151875 L36.88225,16.2676875 C36.847875,16.4708125 36.915375,16.6776875 37.06225,16.8214375 L39.280375,18.9833125 L36.215375,19.4283125 Z M38.170375,16.1558125 L38.852875,12.1776875 C38.892875,11.9433125 38.796625,11.7064375 38.604125,11.5664375 C38.41225,11.4270625 38.156625,11.4095625 37.946,11.5189375 L34.374125,13.3970625 L30.80225,11.5189375 C30.591625,11.4095625 30.336625,11.4270625 30.1435,11.5664375 C29.951625,11.7064375 29.85475,11.9433125 29.895375,12.1776875 L30.57725,16.1558125 L27.68725,18.9720625 C27.51725,19.1383125 27.455375,19.3864375 27.52975,19.6126875 C27.602875,19.8389375 27.7985,20.0039375 28.034125,20.0383125 L32.027875,20.6183125 L33.812875,24.2370625 C33.9185,24.4501875 34.136,24.5858125 34.374125,24.5858125 C34.61225,24.5858125 34.829125,24.4501875 34.934125,24.2370625 L36.720375,20.6183125 L40.7135,20.0383125 C40.949125,20.0039375 41.14475,19.8389375 41.2185,19.6126875 C41.291625,19.3864375 41.230375,19.1383125 41.05975,18.9720625 L38.170375,16.1558125 Z" id="Fill-6" fill="url(#linearGradient-4)"></path>
                            <path d="M31.62675,35.4225625 C29.83925,33.6931875 27.50175,32.7363125 25.004875,32.7363125 C22.503625,32.7363125 20.16925,33.6944375 18.382375,35.4250625 C16.443625,34.0525625 14.936125,32.0844375 14.14925,29.7381875 L35.862375,29.7100625 C35.079875,32.0675625 33.5705,34.0444375 31.62675,35.4225625 M19.47925,36.1075625 C21.0005,34.7400625 22.938,33.9863125 25.004875,33.9863125 C27.068625,33.9863125 29.00675,34.7406875 30.527375,36.1069375 C28.87675,37.0169375 26.989875,37.5338125 25.001125,37.5338125 C23.016125,37.5338125 21.1305,37.0169375 19.47925,36.1075625 M36.697375,28.4588125 L36.696125,28.4588125 L13.312375,28.4894375 C13.11925,28.4894375 12.937375,28.5794375 12.818625,28.7319375 C12.701125,28.8844375 12.659875,29.0831875 12.708,29.2706875 C14.15425,34.8719375 19.20925,38.7838125 25.001125,38.7838125 C30.808625,38.7838125 35.867375,34.8588125 37.303,29.2381875 C37.3505,29.0513125 37.30925,28.8525625 37.1905,28.7000625 C37.072375,28.5481875 36.8905,28.4588125 36.697375,28.4588125" id="Fill-8" fill="url(#linearGradient-5)"></path>
                        </g>
                    </g>
                </g>
            </g>
        </g>
    </g>
</svg>