<?xml version="1.0" encoding="UTF-8"?>
<svg width="30px" height="30px" viewBox="0 0 30 30" version="1.1" xmlns="http://www.w3.org/2000/svg" xmlns:xlink="http://www.w3.org/1999/xlink">
    <title>F114FC6B-3B4A-4ACE-A948-DD5ACD3AD6BF@2x</title>
    <defs>
        <polygon id="path-1" points="0.00015 0.0001125 30 0.0001125 30 30 0.00015 30"></polygon>
    </defs>
    <g id="Desktop" stroke="none" stroke-width="1" fill="none" fill-rule="evenodd">
        <g id="Rewards---Log-in/Sign-Up" transform="translate(-665.000000, -2162.000000)">
            <g id="Rewards" transform="translate(0.000000, 409.000000)">
                <g id="Levels" transform="translate(1.000000, 1618.000000)">
                    <g id="Chart" transform="translate(312.000000, 119.000000)">
                        <g id="Member" transform="translate(352.000000, 16.000000)">
                            <g id="Group-3">
                                <mask id="mask-2" fill="white">
                                    <use xlink:href="#path-1"></use>
                                </mask>
                                <g id="Clip-2"></g>
                                <path d="M15.00015,29.2501125 C7.142775,29.2501125 0.75015,22.8574875 0.75015,15.0001125 C0.75015,7.1427375 7.142775,0.7501125 15.00015,0.7501125 C22.857525,0.7501125 29.25015,7.1427375 29.25015,15.0001125 C29.25015,22.8574875 22.857525,29.2501125 15.00015,29.2501125 M15.00015,0.0001125 C6.728775,0.0001125 0.00015,6.7291125 0.00015,15.0001125 C0.00015,23.2711125 6.728775,30.0001125 15.00015,30.0001125 C23.27115,30.0001125 30.00015,23.2711125 30.00015,15.0001125 C30.00015,6.7291125 23.27115,0.0001125 15.00015,0.0001125" id="Fill-1" fill="#43515C" mask="url(#mask-2)"></path>
                            </g>
                            <path d="M18.976125,21.2535375 C17.904,20.2162875 16.501125,19.6421625 15.003,19.6421625 C13.50225,19.6421625 12.10125,20.2166625 11.029125,21.2550375 C9.86625,20.4315375 8.961375,19.2506625 8.489625,17.8429125 L21.5175,17.8260375 C21.047625,19.2405375 20.142,20.4266625 18.976125,21.2535375 M11.68725,21.6645375 C12.600375,20.8440375 13.7625,20.3921625 15.003,20.3921625 C16.24125,20.3921625 17.404125,20.8440375 18.3165,21.6641625 C17.32575,22.2101625 16.193625,22.5206625 15.00075,22.5206625 C13.80975,22.5206625 12.678375,22.2105375 11.68725,21.6645375 M22.0185,17.0752875 L22.01775,17.0752875 L7.9875,17.0936625 C7.871625,17.0936625 7.7625,17.1476625 7.69125,17.2391625 C7.62075,17.3310375 7.596,17.4502875 7.624875,17.5624125 C8.492625,20.9231625 11.525625,23.2706625 15.00075,23.2706625 C18.48525,23.2706625 21.5205,20.9156625 22.381875,17.5429125 C22.410375,17.4311625 22.385625,17.3115375 22.314375,17.2200375 C22.2435,17.1289125 22.134375,17.0752875 22.0185,17.0752875" id="Fill-4" fill="#43515C"></path>
                            <path d="M9.6871875,10.2305625 C10.8586875,10.2305625 11.8119375,11.1838125 11.8119375,12.3553125 C11.8119375,12.5626875 11.9799375,12.7303125 12.1869375,12.7303125 C12.3943125,12.7303125 12.5619375,12.5626875 12.5619375,12.3553125 C12.5619375,10.7698125 11.2726875,9.4805625 9.6871875,9.4805625 C8.1016875,9.4805625 6.8120625,10.7698125 6.8120625,12.3553125 C6.8120625,12.5626875 6.9796875,12.7303125 7.1870625,12.7303125 C7.3940625,12.7303125 7.5620625,12.5626875 7.5620625,12.3553125 C7.5620625,11.1838125 8.5153125,10.2305625 9.6871875,10.2305625" id="Fill-6" fill="#43515C"></path>
                            <path d="M20.31315,9.4805625 C18.72765,9.4805625 17.438025,10.7698125 17.438025,12.3553125 C17.438025,12.5626875 17.606025,12.7303125 17.813025,12.7303125 C18.0204,12.7303125 18.188025,12.5626875 18.188025,12.3553125 C18.188025,11.1838125 19.141275,10.2305625 20.31315,10.2305625 C21.485025,10.2305625 22.438275,11.1838125 22.438275,12.3553125 C22.438275,12.5626875 22.6059,12.7303125 22.813275,12.7303125 C23.020275,12.7303125 23.188275,12.5626875 23.188275,12.3553125 C23.188275,10.7698125 21.89865,9.4805625 20.31315,9.4805625" id="Fill-8" fill="#43515C"></path>
                            <path d="M10.5217875,7.7370375 C10.7269125,7.7752875 10.9211625,7.6414125 10.9597875,7.4381625 C10.9984125,7.2345375 10.8641625,7.0384125 10.6605375,7.0001625 C6.9964125,6.3071625 5.2995375,9.0116625 5.2830375,9.0394125 C5.1754125,9.2160375 5.2312875,9.4470375 5.4079125,9.5550375 C5.4686625,9.5921625 5.5361625,9.6097875 5.6029125,9.6097875 C5.7292875,9.6097875 5.8526625,9.5460375 5.9231625,9.4305375 C5.9374125,9.4072875 7.3612875,7.1445375 10.5217875,7.7370375" id="Fill-10" fill="#43515C"></path>
                            <path d="M19.3393875,7.0002375 C19.1357625,7.0384875 19.0022625,7.2346125 19.0401375,7.4382375 C19.0787625,7.6414875 19.2733875,7.7749875 19.4781375,7.7371125 C22.6157625,7.1491125 24.0163875,9.3331125 24.0775125,9.4309875 C24.1480125,9.5461125 24.2710125,9.6098625 24.3970125,9.6098625 C24.4637625,9.6098625 24.5312625,9.5922375 24.5923875,9.5547375 C24.7690125,9.4467375 24.8248875,9.2161125 24.7168875,9.0391125 C24.7003875,9.0121125 23.0027625,6.3079875 19.3393875,7.0002375" id="Fill-12" fill="#43515C"></path>
                        </g>
                    </g>
                </g>
            </g>
        </g>
    </g>
</svg>