<?xml version="1.0" encoding="UTF-8"?>
<svg width="50px" height="50px" viewBox="0 0 50 50" version="1.1" xmlns="http://www.w3.org/2000/svg" xmlns:xlink="http://www.w3.org/1999/xlink">
    <title>FEB49995-D411-4146-AB1A-EF894131B997@2x</title>
    <defs>
        <polygon id="path-1" points="0.00025 0.0001875 50 0.0001875 50 50 0.00025 50"></polygon>
        <linearGradient x1="0%" y1="0%" x2="50%" y2="100%" id="linearGradient-3">
            <stop stop-color="#F48FA6" offset="0%"></stop>
            <stop stop-color="#7566AD" offset="100%"></stop>
        </linearGradient>
        <linearGradient x1="0%" y1="41.2151718%" x2="50%" y2="58.7848282%" id="linearGradient-4">
            <stop stop-color="#F48FA6" offset="0%"></stop>
            <stop stop-color="#7566AD" offset="100%"></stop>
        </linearGradient>
        <linearGradient x1="0%" y1="34.028228%" x2="50%" y2="65.971772%" id="linearGradient-5">
            <stop stop-color="#F48FA6" offset="0%"></stop>
            <stop stop-color="#7566AD" offset="100%"></stop>
        </linearGradient>
        <linearGradient x1="0%" y1="34.0303111%" x2="50%" y2="65.9696889%" id="linearGradient-6">
            <stop stop-color="#F48FA6" offset="0%"></stop>
            <stop stop-color="#7566AD" offset="100%"></stop>
        </linearGradient>
        <linearGradient x1="0%" y1="38.7389888%" x2="50%" y2="61.2610112%" id="linearGradient-7">
            <stop stop-color="#F48FA6" offset="0%"></stop>
            <stop stop-color="#7566AD" offset="100%"></stop>
        </linearGradient>
        <linearGradient x1="0%" y1="38.7410122%" x2="50%" y2="61.2589878%" id="linearGradient-8">
            <stop stop-color="#F48FA6" offset="0%"></stop>
            <stop stop-color="#7566AD" offset="100%"></stop>
        </linearGradient>
    </defs>
    <g id="Desktop" stroke="none" stroke-width="1" fill="none" fill-rule="evenodd">
        <g id="Rewards---Log-in/Sign-Up" transform="translate(-940.000000, -556.000000)">
            <g id="Rewards" transform="translate(0.000000, 409.000000)">
                <g id="Levels" transform="translate(720.000000, 0.000000)">
                    <g id="Member" transform="translate(140.000000, 112.000000)">
                        <g id="Icon" transform="translate(80.000000, 35.000000)">
                            <g id="Group-3">
                                <mask id="mask-2" fill="white">
                                    <use xlink:href="#path-1"></use>
                                </mask>
                                <g id="Clip-2"></g>
                                <path d="M25.00025,48.7501875 C11.904625,48.7501875 1.25025,38.0958125 1.25025,25.0001875 C1.25025,11.9045625 11.904625,1.2501875 25.00025,1.2501875 C38.095875,1.2501875 48.75025,11.9045625 48.75025,25.0001875 C48.75025,38.0958125 38.095875,48.7501875 25.00025,48.7501875 M25.00025,0.0001875 C11.214625,0.0001875 0.00025,11.2151875 0.00025,25.0001875 C0.00025,38.7851875 11.214625,50.0001875 25.00025,50.0001875 C38.78525,50.0001875 50.00025,38.7851875 50.00025,25.0001875 C50.00025,11.2151875 38.78525,0.0001875 25.00025,0.0001875" id="Fill-1" fill="url(#linearGradient-3)" mask="url(#mask-2)"></path>
                            </g>
                            <path d="M31.626875,35.4225625 C29.84,33.6938125 27.501875,32.7369375 25.005,32.7369375 C22.50375,32.7369375 20.16875,33.6944375 18.381875,35.4250625 C16.44375,34.0525625 14.935625,32.0844375 14.149375,29.7381875 L35.8625,29.7100625 C35.079375,32.0675625 33.57,34.0444375 31.626875,35.4225625 M19.47875,36.1075625 C21.000625,34.7400625 22.9375,33.9869375 25.005,33.9869375 C27.06875,33.9869375 29.006875,34.7400625 30.5275,36.1069375 C28.87625,37.0169375 26.989375,37.5344375 25.00125,37.5344375 C23.01625,37.5344375 21.130625,37.0175625 19.47875,36.1075625 M36.6975,28.4588125 L36.69625,28.4588125 L13.3125,28.4894375 C13.119375,28.4894375 12.9375,28.5794375 12.81875,28.7319375 C12.70125,28.8850625 12.66,29.0838125 12.708125,29.2706875 C14.154375,34.8719375 19.209375,38.7844375 25.00125,38.7844375 C30.80875,38.7844375 35.8675,34.8594375 37.303125,29.2381875 C37.350625,29.0519375 37.309375,28.8525625 37.190625,28.7000625 C37.0725,28.5481875 36.890625,28.4588125 36.6975,28.4588125" id="Fill-4" fill="url(#linearGradient-4)"></path>
                            <path d="M16.1453125,17.0509375 C18.0978125,17.0509375 19.6865625,18.6396875 19.6865625,20.5921875 C19.6865625,20.9378125 19.9665625,21.2171875 20.3115625,21.2171875 C20.6571875,21.2171875 20.9365625,20.9378125 20.9365625,20.5921875 C20.9365625,17.9496875 18.7878125,15.8009375 16.1453125,15.8009375 C13.5028125,15.8009375 11.3534375,17.9496875 11.3534375,20.5921875 C11.3534375,20.9378125 11.6328125,21.2171875 11.9784375,21.2171875 C12.3234375,21.2171875 12.6034375,20.9378125 12.6034375,20.5921875 C12.6034375,18.6396875 14.1921875,17.0509375 16.1453125,17.0509375" id="Fill-6" fill="url(#linearGradient-5)"></path>
                            <path d="M33.85525,15.8009375 C31.21275,15.8009375 29.063375,17.9496875 29.063375,20.5921875 C29.063375,20.9378125 29.343375,21.2171875 29.688375,21.2171875 C30.034,21.2171875 30.313375,20.9378125 30.313375,20.5921875 C30.313375,18.6396875 31.902125,17.0509375 33.85525,17.0509375 C35.808375,17.0509375 37.397125,18.6396875 37.397125,20.5921875 C37.397125,20.9378125 37.6765,21.2171875 38.022125,21.2171875 C38.367125,21.2171875 38.647125,20.9378125 38.647125,20.5921875 C38.647125,17.9496875 36.49775,15.8009375 33.85525,15.8009375" id="Fill-8" fill="url(#linearGradient-6)"></path>
                            <path d="M17.5363125,12.8950625 C17.8781875,12.9588125 18.2019375,12.7356875 18.2663125,12.3969375 C18.3306875,12.0575625 18.1069375,11.7306875 17.7675625,11.6669375 C11.6606875,10.5119375 8.8325625,15.0194375 8.8050625,15.0656875 C8.6256875,15.3600625 8.7188125,15.7450625 9.0131875,15.9250625 C9.1144375,15.9869375 9.2269375,16.0163125 9.3381875,16.0163125 C9.5488125,16.0163125 9.7544375,15.9100625 9.8719375,15.7175625 C9.8956875,15.6788125 12.2688125,11.9075625 17.5363125,12.8950625" id="Fill-10" fill="url(#linearGradient-7)"></path>
                            <path d="M32.2323125,11.6670625 C31.8929375,11.7308125 31.6704375,12.0576875 31.7335625,12.3970625 C31.7979375,12.7358125 32.1223125,12.9583125 32.4635625,12.8951875 C37.6929375,11.9151875 40.0273125,15.5551875 40.1291875,15.7183125 C40.2466875,15.9101875 40.4516875,16.0164375 40.6616875,16.0164375 C40.7729375,16.0164375 40.8854375,15.9870625 40.9873125,15.9245625 C41.2816875,15.7445625 41.3748125,15.3601875 41.1948125,15.0651875 C41.1673125,15.0201875 38.3379375,10.5133125 32.2323125,11.6670625" id="Fill-12" fill="url(#linearGradient-8)"></path>
                        </g>
                    </g>
                </g>
            </g>
        </g>
    </g>
</svg>