<?xml version="1.0" encoding="UTF-8"?>
<svg width="30px" height="30px" viewBox="0 0 30 30" version="1.1" xmlns="http://www.w3.org/2000/svg" xmlns:xlink="http://www.w3.org/1999/xlink">
    <title>C6C582E0-79DC-4D6F-A956-A73092906370@2x</title>
    <defs>
        <polygon id="path-1" points="7.5e-05 0.0001125 30 0.0001125 30 30 7.5e-05 30"></polygon>
    </defs>
    <g id="Desktop" stroke="none" stroke-width="1" fill="none" fill-rule="evenodd">
        <g id="Rewards---Log-in/Sign-Up" transform="translate(-957.000000, -2161.000000)">
            <g id="Rewards" transform="translate(0.000000, 409.000000)">
                <g id="Levels" transform="translate(1.000000, 1618.000000)">
                    <g id="Chart" transform="translate(312.000000, 119.000000)">
                        <g id="VIP" transform="translate(644.000000, 15.000000)">
                            <g id="Group-3">
                                <mask id="mask-2" fill="white">
                                    <use xlink:href="#path-1"></use>
                                </mask>
                                <g id="Clip-2"></g>
                                <path d="M15.000075,29.2501125 C7.1427,29.2501125 0.750075,22.8574875 0.750075,15.0001125 C0.750075,7.1427375 7.1427,0.7501125 15.000075,0.7501125 C22.85745,0.7501125 29.250075,7.1427375 29.250075,15.0001125 C29.250075,22.8574875 22.85745,29.2501125 15.000075,29.2501125 M15.000075,0.0001125 C6.7287,0.0001125 7.5e-05,6.7287375 7.5e-05,15.0001125 C7.5e-05,23.2711125 6.7287,30.0001125 15.000075,30.0001125 C23.271075,30.0001125 30.000075,23.2711125 30.000075,15.0001125 C30.000075,6.7287375 23.271075,0.0001125 15.000075,0.0001125" id="Fill-1" fill="#43515C" mask="url(#mask-2)"></path>
                            </g>
                            <path d="M7.7623125,10.0929 C7.8508125,10.00665 7.8913125,9.88215 7.8703125,9.76065 L7.5560625,7.928775 L9.2011875,8.7939 C9.3103125,8.851275 9.4411875,8.851275 9.5503125,8.7939 L11.1950625,7.928775 L10.8808125,9.76065 C10.8605625,9.88215 10.9006875,10.00665 10.9888125,10.0929 L12.3196875,11.390025 L10.4806875,11.657025 C10.3584375,11.675025 10.2530625,11.751525 10.1979375,11.862525 L9.3759375,13.529025 L8.5531875,11.862525 C8.4984375,11.751525 8.3930625,11.675025 8.2704375,11.657025 L6.4314375,11.390025 L7.7623125,10.0929 Z M9.0391875,14.542275 C9.1025625,14.67015 9.2330625,14.751525 9.3759375,14.751525 C9.5188125,14.751525 9.6489375,14.67015 9.7119375,14.542275 L10.7836875,12.371025 L13.1795625,12.02265 C13.3209375,12.0024 13.4383125,11.9034 13.4825625,11.76765 C13.5264375,11.6319 13.4896875,11.483025 13.3873125,11.3829 L11.6536875,9.693525 L12.0631875,7.30665 C12.0868125,7.166025 12.0290625,7.023525 11.9135625,6.9399 C11.7984375,6.856275 11.6454375,6.845775 11.5190625,6.9114 L9.3759375,8.038275 L7.2324375,6.9114 C7.1064375,6.845775 6.9534375,6.856275 6.8375625,6.9399 C6.7224375,7.023525 6.6643125,7.166025 6.6883125,7.30665 L7.0978125,9.693525 L5.3638125,11.3829 C5.2618125,11.483025 5.2246875,11.6319 5.2693125,11.76765 C5.3131875,11.9034 5.4305625,12.0024 5.5719375,12.02265 L7.9678125,12.371025 L9.0391875,14.542275 Z" id="Fill-4" fill="#43515C"></path>
                            <path d="M21.729225,11.6569875 C21.606975,11.6749875 21.5016,11.7514875 21.44685,11.8624875 L20.624475,13.5289875 L19.801725,11.8624875 C19.74735,11.7514875 19.641975,11.6749875 19.51935,11.6569875 L17.679975,11.3899875 L19.01085,10.0928625 C19.09935,10.0066125 19.13985,9.8824875 19.11885,9.7606125 L18.8046,7.9291125 L20.449725,8.7938625 C20.55885,8.8516125 20.689725,8.8516125 20.79885,8.7938625 L22.443975,7.9291125 L22.12935,9.7606125 C22.108725,9.8824875 22.149225,10.0066125 22.23735,10.0928625 L23.568225,11.3899875 L21.729225,11.6569875 Z M22.902225,9.6934875 L23.311725,7.3066125 C23.335725,7.1659875 23.277975,7.0238625 23.162475,6.9398625 C23.04735,6.8562375 22.893975,6.8457375 22.7676,6.9113625 L20.624475,8.0382375 L18.48135,6.9113625 C18.354975,6.8457375 18.201975,6.8562375 18.0861,6.9398625 C17.970975,7.0238625 17.91285,7.1659875 17.937225,7.3066125 L18.34635,9.6934875 L16.61235,11.3832375 C16.51035,11.4829875 16.473225,11.6318625 16.51785,11.7676125 C16.561725,11.9033625 16.6791,12.0023625 16.820475,12.0229875 L19.216725,12.3709875 L20.287725,14.5422375 C20.3511,14.6701125 20.4816,14.7514875 20.624475,14.7514875 C20.76735,14.7514875 20.897475,14.6701125 20.960475,14.5422375 L22.032225,12.3709875 L24.4281,12.0229875 C24.569475,12.0023625 24.68685,11.9033625 24.7311,11.7676125 C24.774975,11.6318625 24.738225,11.4829875 24.63585,11.3832375 L22.902225,9.6934875 Z" id="Fill-6" fill="#43515C"></path>
                            <path d="M18.97605,21.2535375 C17.90355,20.2159125 16.50105,19.6417875 15.002925,19.6417875 C13.502175,19.6417875 12.10155,20.2166625 11.029425,21.2550375 C9.866175,20.4315375 8.961675,19.2506625 8.48955,17.8429125 L21.517425,17.8260375 C21.047925,19.2405375 20.1423,20.4266625 18.97605,21.2535375 M11.68755,21.6645375 C12.6003,20.8440375 13.7628,20.3917875 15.002925,20.3917875 C16.241175,20.3917875 17.40405,20.8444125 18.316425,21.6641625 C17.32605,22.2101625 16.193925,22.5202875 15.000675,22.5202875 C13.809675,22.5202875 12.6783,22.2101625 11.68755,21.6645375 M22.018425,17.0752875 L22.017675,17.0752875 L7.987425,17.0936625 C7.87155,17.0936625 7.762425,17.1476625 7.691175,17.2391625 C7.620675,17.3306625 7.595925,17.4499125 7.6248,17.5624125 C8.49255,20.9231625 11.52555,23.2702875 15.000675,23.2702875 C18.485175,23.2702875 21.520425,20.9152875 22.3818,17.5429125 C22.4103,17.4307875 22.38555,17.3115375 22.3143,17.2200375 C22.243425,17.1289125 22.1343,17.0752875 22.018425,17.0752875" id="Fill-8" fill="#43515C"></path>
                        </g>
                    </g>
                </g>
            </g>
        </g>
    </g>
</svg>